<svg width="1134" height="300" viewBox="0 0 1134 300" fill="none" xmlns="http://www.w3.org/2000/svg">
<g clip-path="url(#clip0)">
<path fill-rule="evenodd" clip-rule="evenodd" d="M165.633 233.414C197.945 233.222 243.63 229.319 243.63 188.433C243.63 168.577 231.601 156.59 207.415 149.126C226.93 144.199 243.673 129.824 243.673 110.287C243.673 70.7877 195.535 66.5221 165.676 66.5221H65.2851V233.478H102.673V100.647H200.547V130.336H136.563V168.513H194.362V196.602H136.563V233.414H165.633ZM66.6645 25.2796C91.3319 8.79734 120.333 0 150 0H150.043C189.818 0.011311 227.96 15.8198 256.081 43.9491C284.202 72.0783 300 110.225 300 150C300 179.667 291.203 208.668 274.72 233.336C258.238 258.003 234.811 277.229 207.403 288.582C179.994 299.935 149.834 302.906 120.736 297.118C91.6393 291.33 64.9119 277.044 43.934 256.066C22.9562 235.088 8.67006 208.361 2.88227 179.264C-2.90551 150.166 0.0649944 120.006 11.4181 92.5975C22.7713 65.1886 41.9972 41.7618 66.6645 25.2796ZM360.657 130.293V15.4628H462.242C483.186 15.4628 516.885 18.2994 516.885 45.5993C516.885 59.0146 505.112 68.4843 491.419 71.9181C508.481 77.0368 516.885 86.4638 516.885 99.3673C516.885 127.52 484.893 130.208 462.242 130.293H397.96L408.624 112.655C409.974 110.693 411.78 109.086 413.885 107.972C415.991 106.858 418.334 106.269 420.717 106.256H461.688C469.451 106.384 475.594 100.882 475.594 94.1632C475.594 87.4449 469.579 82.0276 461.688 82.0276L397.96 81.9423L408.624 64.3253C409.973 62.3619 411.778 60.7545 413.884 59.6402C415.99 58.526 418.334 57.9382 420.717 57.9269H462.242C469.664 57.9269 475.7 54.5358 475.7 48.7772C475.7 43.0186 469.707 39.5635 462.242 39.5635H397.96V81.9423V130.293H360.657ZM607.06 43.1893L556.704 130.421H512.854L583.065 15.4628H631.054L701.201 130.336H657.394L645.621 109.861H580.613L591.405 92.2437C592.765 90.2905 594.572 88.6908 596.675 87.5777C598.779 86.4647 601.118 85.8707 603.498 85.8453H631.651L607.06 43.1893ZM912.05 43.1893L911.997 43.2817L911.944 43.1893H912.05ZM911.997 43.2817L861.737 130.421H817.78L887.971 15.4628H935.959L1006.09 130.336H962.384L950.59 109.861H885.604L896.268 92.2437C897.616 90.2888 899.414 88.6869 901.512 87.5733C903.609 86.4596 905.943 85.867 908.318 85.8453H936.513L911.997 43.2817ZM769.153 106.256C777.684 106.256 784.487 102.14 784.487 93.7793V15.4628H821.619V97.2344C821.619 122.018 805.218 130.336 783.741 130.336H721.676C719.3 130.307 716.965 129.711 714.866 128.598C712.766 127.485 710.962 125.887 709.605 123.937L698.813 106.235L769.153 106.256ZM1073.99 106.256C1082.53 106.256 1089.37 102.14 1089.37 93.7793V15.4628H1126.61V97.2344C1126.61 122.018 1110.25 130.336 1088.75 130.336H1026.69C1024.31 130.321 1021.97 129.731 1019.87 128.617C1017.77 127.503 1015.96 125.898 1014.62 123.937L1003.82 106.235L1073.99 106.256ZM360.444 168.577H452.41V196.495H392.308V223.88H446.651V250.306H392.308V283.535H360.444V168.577ZM506.071 168.577H474.079V283.535H506.071V168.577ZM533.691 168.577H563.422L610.728 229.34V168.577H642.251V283.535H614.332L565.278 220.489V283.535H533.691V168.577ZM678.21 245.272L660.486 266.451C674.606 279.099 693.971 285.497 714.361 285.497C742.258 285.497 760.813 271.527 760.813 248.066V247.746C760.813 226.226 744.412 217.674 717.965 211.937C702.033 208.311 698.088 206.029 698.088 200.761V200.441C698.088 196.324 701.863 193.04 709.583 193.04C719.778 193.04 731.253 196.986 741.767 204.386L757.699 181.885C745.223 171.861 729.952 166.615 710.415 166.615C682.817 166.615 665.904 182.077 665.904 203.405V203.725C665.904 227.378 684.779 234.267 709.264 239.855C724.854 243.459 728.629 246.104 728.629 250.86V251.18C728.629 256.107 724.023 259.072 715.491 259.072C701.845 258.908 688.674 254.033 678.21 245.272ZM782.824 168.577H875.281V195.684H814.368V213.088H869.544V238.213H814.368V256.469H876.113V283.556H782.824V168.577ZM953.299 168.577H898.934V283.535H930.798V248.727H944.746L967.908 283.535H1004.7L977.271 243.459C991.561 237.381 1000.92 225.736 1000.92 208.161V207.82C1000.92 196.495 997.469 187.622 990.729 181.053C983.03 173.183 970.873 168.577 953.299 168.577ZM968.783 210.124C968.783 218.505 962.576 223.773 951.72 223.773H930.691V196.175H951.55C962.214 196.175 968.783 200.761 968.783 209.804V210.124ZM1011.1 168.577H1046.74L1072.84 241.326L1098.88 168.577H1133.86L1087.22 284.366H1057.74L1011.1 168.577Z" fill="#0069B4"/>
</g>
<defs>
<clipPath id="clip0">
<rect width="1134" height="300" fill="white"/>
</clipPath>
</defs>
</svg>
