<svg width="807" height="535" viewBox="0 0 807 535" fill="none" xmlns="http://www.w3.org/2000/svg">
<line x1="16.4833" y1="4.87178" x2="55.4833" y2="151.872" stroke="#2C2D66"/>
<line x1="299.213" y1="398.548" x2="570.886" y2="526.775" stroke="#ED296C"/>
<line x1="236.232" y1="8.557" x2="450.232" y2="120.557" stroke="#2C2D66"/>
<line x1="376.117" y1="163.33" x2="169.375" y2="398.125" stroke="#2C2D66"/>
<line x1="16.462" y1="406.809" x2="69.462" y2="534.809" stroke="#ED296C"/>
<line x1="219.174" y1="205.491" x2="16.0933" y2="244.066" stroke="#ED296C"/>
<line x1="742.5" y1="219.021" x2="729.5" y2="527.021" stroke="#ED296C"/>
<line x1="645.071" y1="4.50503" x2="806.071" y2="27.505" stroke="#2C2D66"/>
<line x1="509.728" y1="223.581" x2="754.728" y2="64.5806" stroke="#ED296C"/>
<line x1="510.229" y1="268.556" x2="697.261" y2="364.899" stroke="#2C2D66"/>
<path d="M450 197L491.569 232.25H408.431L450 197Z" fill="#ED296C"/>
<path d="M217.647 142.971L183.869 185.745L180.967 102.657L217.647 142.971Z" fill="#ED296C"/>
<path d="M38.1954 342.869L16.1718 352.492L16.2033 293L38.1954 342.869Z" fill="#ED296C"/>
<path d="M662.196 406.747L709.493 433.832L627.747 448.982L662.196 406.747Z" fill="#ED296C"/>
<path d="M440.606 5.1613L478.631 5.07938L469.928 51.1043L440.606 5.1613Z" fill="#ED296C"/>
<path d="M360.537 488.204L367.221 525.638L320.384 525.059L360.537 488.204Z" fill="#ED296C"/>
<path d="M176 9C176 11.6264 175.483 14.2272 174.478 16.6537C173.472 19.0802 171.999 21.285 170.142 23.1421C168.285 24.9993 166.08 26.4725 163.654 27.4776C161.227 28.4827 158.626 29 156 29C153.374 29 150.773 28.4827 148.346 27.4776C145.92 26.4725 143.715 24.9993 141.858 23.1421C140.001 21.285 138.528 19.0802 137.522 16.6537C136.517 14.2272 136 11.6264 136 9L156 9H176Z" fill="#2C2D66"/>
<circle cx="176" cy="481" r="20" fill="#2C2D66"/>
<circle cx="437" cy="378" r="20" fill="#2C2D66"/>
<circle cx="786" cy="167" r="20" fill="#2C2D66"/>
<path d="M806 373C803.374 373 800.773 372.483 798.346 371.478C795.92 370.472 793.715 368.999 791.858 367.142C790.001 365.285 788.528 363.08 787.522 360.654C786.517 358.227 786 355.626 786 353C786 350.374 786.517 347.773 787.522 345.346C788.528 342.92 790.001 340.715 791.858 338.858C793.715 337.001 795.92 335.528 798.346 334.522C800.773 333.517 803.374 333 806 333L806 353V373Z" fill="#2C2D66"/>
<circle cx="510" cy="91" r="20" fill="#2C2D66"/>
</svg>
