<svg width="226" height="88" viewBox="0 0 226 88" fill="none" xmlns="http://www.w3.org/2000/svg">
<path d="M86.0977 39H80.8242L70.5586 22.1602V39H65.2852V13.4062H70.5586L80.8418 30.2812V13.4062H86.0977V39ZM110.074 13.4062V30.2637C110.074 33.0645 109.195 35.2793 107.438 36.9082C105.691 38.5371 103.301 39.3516 100.266 39.3516C97.2773 39.3516 94.9043 38.5605 93.1465 36.9785C91.3887 35.3965 90.4922 33.2227 90.457 30.457V13.4062H95.7305V30.2988C95.7305 31.9746 96.1289 33.1992 96.9258 33.9727C97.7344 34.7344 98.8477 35.1152 100.266 35.1152C103.23 35.1152 104.736 33.5566 104.783 30.4395V13.4062H110.074ZM121.289 13.4062L127.863 31.9688L134.402 13.4062H141.328V39H136.037V32.0039L136.564 19.9277L129.656 39H126.035L119.145 19.9453L119.672 32.0039V39H114.398V13.4062H121.289ZM161.332 27.9082H151.207V34.7637H163.09V39H145.934V13.4062H163.055V17.6777H151.207V23.7773H161.332V27.9082ZM175.658 29.6309H171.457V39H166.184V13.4062H175.693C178.717 13.4062 181.049 14.0801 182.689 15.4277C184.33 16.7754 185.15 18.6797 185.15 21.1406C185.15 22.8867 184.77 24.3457 184.008 25.5176C183.258 26.6777 182.115 27.6035 180.58 28.2949L186.117 38.7539V39H180.457L175.658 29.6309ZM171.457 25.3594H175.711C177.035 25.3594 178.061 25.0254 178.787 24.3574C179.514 23.6777 179.877 22.7461 179.877 21.5625C179.877 20.3555 179.531 19.4062 178.84 18.7148C178.16 18.0234 177.111 17.6777 175.693 17.6777H171.457V25.3594Z" fill="#2C2D66"/>
<ellipse cx="199.5" cy="26" rx="12.5" ry="13" fill="#2C2D66"/>
<path d="M217.991 7.92402L218 23.0001L202.928 7.84378L217.991 7.92402Z" fill="#ED2966"/>
<path d="M72.6445 82.6045H68.4678V87H67.1553V77.0469H73.3213V78.127H68.4678V81.5312H72.6445V82.6045ZM76.3018 87H74.9893V77.0469H76.3018V87ZM86.3574 87H85.0381L80.0273 79.3301V87H78.708V77.0469H80.0273L85.0518 84.751V77.0469H86.3574V87ZM94.3076 84.4023H90.1377L89.2012 87H87.8477L91.6484 77.0469H92.7969L96.6045 87H95.2578L94.3076 84.4023ZM90.5342 83.3223H93.918L92.2227 78.667L90.5342 83.3223ZM105.594 87H104.274L99.2637 79.3301V87H97.9443V77.0469H99.2637L104.288 84.751V77.0469H105.594V87ZM115.246 83.8418C115.123 84.8945 114.733 85.708 114.077 86.2822C113.425 86.8519 112.557 87.1367 111.473 87.1367C110.297 87.1367 109.354 86.7152 108.643 85.8721C107.936 85.029 107.583 83.901 107.583 82.4883V81.5312C107.583 80.6061 107.747 79.7926 108.075 79.0908C108.408 78.389 108.877 77.8512 109.483 77.4775C110.09 77.0993 110.791 76.9102 111.589 76.9102C112.646 76.9102 113.494 77.2064 114.132 77.7988C114.77 78.3867 115.141 79.2025 115.246 80.2461H113.927C113.813 79.4531 113.564 78.8789 113.182 78.5234C112.803 78.168 112.272 77.9902 111.589 77.9902C110.75 77.9902 110.092 78.3001 109.613 78.9199C109.139 79.5397 108.902 80.4215 108.902 81.5654V82.5293C108.902 83.6094 109.128 84.4684 109.579 85.1064C110.03 85.7445 110.661 86.0635 111.473 86.0635C112.202 86.0635 112.76 85.8994 113.147 85.5713C113.539 85.2386 113.799 84.6621 113.927 83.8418H115.246ZM118.452 87H117.14V77.0469H118.452V87ZM126.478 84.4023H122.308L121.371 87H120.018L123.818 77.0469H124.967L128.774 87H127.428L126.478 84.4023ZM122.704 83.3223H126.088L124.393 78.667L122.704 83.3223ZM131.434 85.9268H136.15V87H130.114V77.0469H131.434V85.9268ZM144.053 82.5635C142.927 82.2399 142.107 81.8434 141.592 81.374C141.081 80.9001 140.826 80.3167 140.826 79.624C140.826 78.8402 141.138 78.193 141.763 77.6826C142.392 77.1676 143.207 76.9102 144.21 76.9102C144.894 76.9102 145.502 77.0423 146.035 77.3066C146.573 77.571 146.988 77.9355 147.279 78.4004C147.576 78.8652 147.724 79.3734 147.724 79.9248H146.404C146.404 79.3232 146.213 78.8516 145.83 78.5098C145.447 78.1634 144.907 77.9902 144.21 77.9902C143.563 77.9902 143.057 78.1338 142.692 78.4209C142.332 78.7035 142.152 79.0977 142.152 79.6035C142.152 80.0091 142.323 80.3532 142.665 80.6357C143.011 80.9137 143.597 81.1689 144.422 81.4014C145.251 81.6338 145.898 81.8913 146.363 82.1738C146.833 82.4518 147.179 82.7777 147.402 83.1514C147.63 83.5251 147.744 83.9648 147.744 84.4707C147.744 85.2773 147.43 85.9245 146.801 86.4121C146.172 86.8952 145.331 87.1367 144.278 87.1367C143.595 87.1367 142.957 87.0068 142.364 86.7471C141.772 86.4827 141.314 86.1227 140.99 85.667C140.671 85.2113 140.512 84.694 140.512 84.1152H141.831C141.831 84.7168 142.052 85.193 142.494 85.5439C142.941 85.8903 143.535 86.0635 144.278 86.0635C144.971 86.0635 145.502 85.9222 145.871 85.6396C146.24 85.3571 146.425 84.972 146.425 84.4844C146.425 83.9967 146.254 83.6208 145.912 83.3564C145.57 83.0876 144.951 82.8232 144.053 82.5635ZM157.089 82.3447C157.089 83.32 156.925 84.1722 156.597 84.9014C156.269 85.626 155.804 86.1797 155.202 86.5625C154.601 86.9453 153.899 87.1367 153.097 87.1367C152.313 87.1367 151.618 86.9453 151.012 86.5625C150.406 86.1751 149.934 85.626 149.597 84.915C149.264 84.1995 149.093 83.3724 149.084 82.4336V81.7158C149.084 80.7588 149.25 79.9134 149.583 79.1797C149.916 78.446 150.385 77.8854 150.991 77.498C151.602 77.1061 152.299 76.9102 153.083 76.9102C153.881 76.9102 154.582 77.1038 155.188 77.4912C155.799 77.874 156.269 78.4323 156.597 79.166C156.925 79.8952 157.089 80.7451 157.089 81.7158V82.3447ZM155.783 81.7021C155.783 80.5218 155.546 79.6172 155.072 78.9883C154.598 78.3548 153.935 78.0381 153.083 78.0381C152.254 78.0381 151.6 78.3548 151.121 78.9883C150.647 79.6172 150.403 80.4922 150.39 81.6133V82.3447C150.39 83.4886 150.629 84.3887 151.107 85.0449C151.59 85.6966 152.254 86.0225 153.097 86.0225C153.944 86.0225 154.601 85.7148 155.065 85.0996C155.53 84.4798 155.77 83.5934 155.783 82.4404V81.7021ZM160.377 85.9268H165.094V87H159.058V77.0469H160.377V85.9268ZM173.229 77.0469V83.8145C173.224 84.7533 172.928 85.5212 172.34 86.1182C171.757 86.7152 170.964 87.0501 169.961 87.123L169.612 87.1367C168.523 87.1367 167.655 86.8428 167.008 86.2549C166.361 85.667 166.033 84.8581 166.023 83.8281V77.0469H167.322V83.7871C167.322 84.5072 167.521 85.0677 167.917 85.4688C168.313 85.8652 168.879 86.0635 169.612 86.0635C170.355 86.0635 170.923 85.8652 171.314 85.4688C171.711 85.0723 171.909 84.514 171.909 83.7939V77.0469H173.229ZM182.177 78.127H178.978V87H177.672V78.127H174.479V77.0469H182.177V78.127ZM185.062 87H183.749V77.0469H185.062V87ZM195.124 82.3447C195.124 83.32 194.96 84.1722 194.632 84.9014C194.304 85.626 193.839 86.1797 193.237 86.5625C192.636 86.9453 191.934 87.1367 191.132 87.1367C190.348 87.1367 189.653 86.9453 189.047 86.5625C188.441 86.1751 187.969 85.626 187.632 84.915C187.299 84.1995 187.128 83.3724 187.119 82.4336V81.7158C187.119 80.7588 187.285 79.9134 187.618 79.1797C187.951 78.446 188.42 77.8854 189.026 77.498C189.637 77.1061 190.334 76.9102 191.118 76.9102C191.916 76.9102 192.618 77.1038 193.224 77.4912C193.834 77.874 194.304 78.4323 194.632 79.166C194.96 79.8952 195.124 80.7451 195.124 81.7158V82.3447ZM193.818 81.7021C193.818 80.5218 193.581 79.6172 193.107 78.9883C192.633 78.3548 191.97 78.0381 191.118 78.0381C190.289 78.0381 189.635 78.3548 189.156 78.9883C188.682 79.6172 188.438 80.4922 188.425 81.6133V82.3447C188.425 83.4886 188.664 84.3887 189.143 85.0449C189.626 85.6966 190.289 86.0225 191.132 86.0225C191.979 86.0225 192.636 85.7148 193.101 85.0996C193.565 84.4798 193.805 83.5934 193.818 82.4404V81.7021ZM204.742 87H203.423L198.412 79.3301V87H197.093V77.0469H198.412L203.437 84.751V77.0469H204.742V87ZM210.006 82.5635C208.88 82.2399 208.06 81.8434 207.545 81.374C207.035 80.9001 206.779 80.3167 206.779 79.624C206.779 78.8402 207.091 78.193 207.716 77.6826C208.345 77.1676 209.16 76.9102 210.163 76.9102C210.847 76.9102 211.455 77.0423 211.988 77.3066C212.526 77.571 212.941 77.9355 213.232 78.4004C213.529 78.8652 213.677 79.3734 213.677 79.9248H212.357C212.357 79.3232 212.166 78.8516 211.783 78.5098C211.4 78.1634 210.86 77.9902 210.163 77.9902C209.516 77.9902 209.01 78.1338 208.646 78.4209C208.285 78.7035 208.105 79.0977 208.105 79.6035C208.105 80.0091 208.276 80.3532 208.618 80.6357C208.965 80.9137 209.55 81.1689 210.375 81.4014C211.204 81.6338 211.852 81.8913 212.316 82.1738C212.786 82.4518 213.132 82.7777 213.355 83.1514C213.583 83.5251 213.697 83.9648 213.697 84.4707C213.697 85.2773 213.383 85.9245 212.754 86.4121C212.125 86.8952 211.284 87.1367 210.231 87.1367C209.548 87.1367 208.91 87.0068 208.317 86.7471C207.725 86.4827 207.267 86.1227 206.943 85.667C206.624 85.2113 206.465 84.694 206.465 84.1152H207.784C207.784 84.7168 208.005 85.193 208.447 85.5439C208.894 85.8903 209.489 86.0635 210.231 86.0635C210.924 86.0635 211.455 85.9222 211.824 85.6396C212.193 85.3571 212.378 84.972 212.378 84.4844C212.378 83.9967 212.207 83.6208 211.865 83.3564C211.523 83.0876 210.904 82.8232 210.006 82.5635Z" fill="#2C2D66"/>
<rect y="13" width="58" height="74" fill="#2C2D66"/>
<path d="M26.2344 45H21.5469L12.4219 30.0312V45H7.73438V22.25H12.4219L21.5625 37.25V22.25H26.2344V45Z" fill="white"/>
<path d="M24.6484 67.3789H13.3984V79H7.53906V50.5625H26.0547V55.3086H13.3984V62.6523H24.6484V67.3789Z" fill="#ED2966"/>
<path d="M44.853 71.7256C44.853 70.6465 44.4722 69.8213 43.7104 69.25C42.9487 68.666 41.5776 68.0566 39.5972 67.4219C37.6167 66.7744 36.0488 66.1396 34.8936 65.5176C31.7451 63.8164 30.1709 61.5249 30.1709 58.6431C30.1709 57.145 30.5898 55.812 31.4277 54.644C32.2783 53.4634 33.4907 52.543 35.0649 51.8828C36.6519 51.2227 38.4292 50.8926 40.397 50.8926C42.3774 50.8926 44.1421 51.2544 45.6909 51.978C47.2397 52.689 48.4395 53.6982 49.29 55.0059C50.1533 56.3135 50.585 57.7988 50.585 59.4619H44.8721C44.8721 58.1924 44.4722 57.2085 43.6724 56.5103C42.8726 55.7993 41.749 55.4438 40.3018 55.4438C38.9053 55.4438 37.8198 55.7422 37.0454 56.3389C36.271 56.9229 35.8838 57.6973 35.8838 58.6621C35.8838 59.5635 36.3345 60.3188 37.2358 60.9282C38.1499 61.5376 39.4893 62.1089 41.2539 62.6421C44.5039 63.6196 46.8716 64.832 48.3569 66.2793C49.8423 67.7266 50.585 69.5293 50.585 71.6875C50.585 74.0869 49.6772 75.9722 47.8618 77.3433C46.0464 78.7017 43.6025 79.3809 40.5303 79.3809C38.3975 79.3809 36.4551 78.9937 34.7031 78.2192C32.9512 77.4321 31.6118 76.3594 30.6851 75.001C29.771 73.6426 29.314 72.0684 29.314 70.2783H35.0459C35.0459 73.3379 36.874 74.8677 40.5303 74.8677C41.8887 74.8677 42.9487 74.5947 43.7104 74.0488C44.4722 73.4902 44.853 72.7158 44.853 71.7256Z" fill="#ED2966"/>
<path d="M84.6562 45.4062V62.2637C84.6562 65.0645 83.7773 67.2793 82.0195 68.9082C80.2734 70.5371 77.8828 71.3516 74.8477 71.3516C71.8594 71.3516 69.4863 70.5605 67.7285 68.9785C65.9707 67.3965 65.0742 65.2227 65.0391 62.457V45.4062H70.3125V62.2988C70.3125 63.9746 70.7109 65.1992 71.5078 65.9727C72.3164 66.7344 73.4297 67.1152 74.8477 67.1152C77.8125 67.1152 79.3184 65.5566 79.3652 62.4395V45.4062H84.6562ZM109.793 71H104.52L94.2539 54.1602V71H88.9805V45.4062H94.2539L104.537 62.2812V45.4062H109.793V71ZM135.422 58.7832C135.422 61.3027 134.977 63.5117 134.086 65.4102C133.195 67.3086 131.918 68.7734 130.254 69.8047C128.602 70.8359 126.703 71.3516 124.559 71.3516C122.438 71.3516 120.545 70.8418 118.881 69.8223C117.217 68.8027 115.928 67.3496 115.014 65.4629C114.1 63.5645 113.637 61.3848 113.625 58.9238V57.6582C113.625 55.1387 114.076 52.9238 114.979 51.0137C115.893 49.0918 117.176 47.6211 118.828 46.6016C120.492 45.5703 122.391 45.0547 124.523 45.0547C126.656 45.0547 128.549 45.5703 130.201 46.6016C131.865 47.6211 133.148 49.0918 134.051 51.0137C134.965 52.9238 135.422 55.1328 135.422 57.6406V58.7832ZM130.078 57.623C130.078 54.9395 129.598 52.9004 128.637 51.5059C127.676 50.1113 126.305 49.4141 124.523 49.4141C122.754 49.4141 121.389 50.1055 120.428 51.4883C119.467 52.8594 118.98 54.875 118.969 57.5352V58.7832C118.969 61.3965 119.449 63.4238 120.41 64.8652C121.371 66.3066 122.754 67.0273 124.559 67.0273C126.328 67.0273 127.688 66.3359 128.637 64.9531C129.586 63.5586 130.066 61.5312 130.078 58.8711V57.623Z" fill="#ED2966"/>
<path d="M49.4912 22.5391V37.9917C49.4912 40.5591 48.6855 42.5894 47.0742 44.0825C45.4736 45.5757 43.2822 46.3223 40.5 46.3223C37.7607 46.3223 35.5854 45.5972 33.9741 44.147C32.3628 42.6968 31.541 40.7041 31.5088 38.1689V22.5391H36.3428V38.0239C36.3428 39.5601 36.708 40.6826 37.4385 41.3916C38.1797 42.0898 39.2002 42.439 40.5 42.439C43.2178 42.439 44.5981 41.0103 44.6411 38.1528V22.5391H49.4912Z" fill="white"/>
</svg>
