<svg width="58" height="74" viewBox="0 0 58 74" fill="none" xmlns="http://www.w3.org/2000/svg">
<rect width="58" height="74" fill="#2C2D66"/>
<path d="M26.2344 32H21.5469L12.4219 17.0312V32H7.73438V9.25H12.4219L21.5625 24.25V9.25H26.2344V32Z" fill="white"/>
<path d="M24.6484 54.3789H13.3984V66H7.53906V37.5625H26.0547V42.3086H13.3984V49.6523H24.6484V54.3789Z" fill="#ED2966"/>
<path d="M44.853 58.7256C44.853 57.6465 44.4722 56.8213 43.7104 56.25C42.9487 55.666 41.5776 55.0566 39.5972 54.4219C37.6167 53.7744 36.0488 53.1396 34.8936 52.5176C31.7451 50.8164 30.1709 48.5249 30.1709 45.6431C30.1709 44.145 30.5898 42.812 31.4277 41.644C32.2783 40.4634 33.4907 39.543 35.0649 38.8828C36.6519 38.2227 38.4292 37.8926 40.397 37.8926C42.3774 37.8926 44.1421 38.2544 45.6909 38.978C47.2397 39.689 48.4395 40.6982 49.29 42.0059C50.1533 43.3135 50.585 44.7988 50.585 46.4619H44.8721C44.8721 45.1924 44.4722 44.2085 43.6724 43.5103C42.8726 42.7993 41.749 42.4438 40.3018 42.4438C38.9053 42.4438 37.8198 42.7422 37.0454 43.3389C36.271 43.9229 35.8838 44.6973 35.8838 45.6621C35.8838 46.5635 36.3345 47.3188 37.2358 47.9282C38.1499 48.5376 39.4893 49.1089 41.2539 49.6421C44.5039 50.6196 46.8716 51.832 48.3569 53.2793C49.8423 54.7266 50.585 56.5293 50.585 58.6875C50.585 61.0869 49.6772 62.9722 47.8618 64.3433C46.0464 65.7017 43.6025 66.3809 40.5303 66.3809C38.3975 66.3809 36.4551 65.9937 34.7031 65.2192C32.9512 64.4321 31.6118 63.3594 30.6851 62.001C29.771 60.6426 29.314 59.0684 29.314 57.2783H35.0459C35.0459 60.3379 36.874 61.8677 40.5303 61.8677C41.8887 61.8677 42.9487 61.5947 43.7104 61.0488C44.4722 60.4902 44.853 59.7158 44.853 58.7256Z" fill="#ED2966"/>
<path d="M49.4912 9.53906V24.9917C49.4912 27.5591 48.6855 29.5894 47.0742 31.0825C45.4736 32.5757 43.2822 33.3223 40.5 33.3223C37.7607 33.3223 35.5854 32.5972 33.9741 31.147C32.3628 29.6968 31.541 27.7041 31.5088 25.1689V9.53906H36.3428V25.0239C36.3428 26.5601 36.708 27.6826 37.4385 28.3916C38.1797 29.0898 39.2002 29.439 40.5 29.439C43.2178 29.439 44.5981 28.0103 44.6411 25.1528V9.53906H49.4912Z" fill="white"/>
</svg>
